<svg width="96" height="32" viewBox="0 0 96 32" fill="none" xmlns="http://www.w3.org/2000/svg">
<g clip-path="url(#clip0_86_2134)">
<path d="M27.5197 7.73142L14.3154 0.115058C14.0853 -0.0383527 13.7799 -0.0383527 13.5497 0.115058L0.382109 7.73142C0.151996 7.88483 0 8.11353 0 8.382V23.6165C0 23.885 0.153411 24.1521 0.382109 24.2671L13.5497 31.8849C13.6648 31.9617 13.8182 32 13.9319 32C14.0469 32 14.2003 31.9617 14.314 31.8849L27.4816 24.2671C27.7117 24.1137 27.8637 23.885 27.8637 23.6165L27.8651 8.382C27.9035 8.11496 27.7499 7.84648 27.5197 7.73142ZM6.65902 18.794L1.95175 9.10924L12.5539 8.57371L6.65902 18.794ZM13.9317 9.26269L19.9416 19.6747H7.92156L13.9317 9.26269ZM19.8267 21.206L13.9317 29.8565L8.07538 21.206H19.8267ZM15.3096 8.57397L25.9117 9.10949L21.2045 18.7942L15.3096 8.57397ZM14.6973 7.00437V2.10509L23.9984 7.46437L14.6973 7.00437ZM13.1661 7.00437L3.86502 7.46317L13.1661 2.10389V7.00437ZM5.58793 20.0953L1.52975 22.3155V11.7133L5.58793 20.0953ZM6.35215 21.4362L11.4049 28.9005L2.33396 23.618L6.35215 21.4362ZM21.5114 21.4362L25.5681 23.618L16.4587 28.8991L21.5114 21.4362ZM22.2771 20.0953L26.3723 11.7131V22.3153L22.2771 20.0953Z" fill="#3B443F"/>
<path d="M47.7931 7.13816L45.3603 13.9127L43.484 14.4691L41.9349 10.0836L40.7131 13.9127L38.8258 14.4691L35.9349 6.93089L34.8549 6.39634L35.204 5.68725H38.7385V6.29816L37.9749 6.86543L40.1458 12.6363L41.4222 8.65452L40.8112 6.93089L39.8185 6.40725L40.1676 5.69816H43.9858V6.30907L42.8949 6.98543L44.8258 12.6473L46.7349 7.21452L45.0112 6.40725L45.3712 5.69816H48.884L48.8949 6.29816L47.7931 7.13816ZM54.3932 14.2727H51.906V13.3236L50.6732 14.2945C50.5278 14.3527 50.346 14.3818 50.1278 14.3818C49.4296 14.3818 48.9241 14.2109 48.6114 13.8691C48.306 13.5273 48.1532 13.1163 48.1532 12.6363C48.1532 12.3527 48.2405 12.0763 48.415 11.8073C48.5896 11.5309 48.8405 11.2763 49.1678 11.0436H51.906V10.8582C51.906 10.4582 51.7969 10.1636 51.5787 9.97452C51.3605 9.78543 51.0696 9.69089 50.706 9.69089C50.1969 9.69089 49.5314 9.89089 48.7096 10.2909L48.3823 9.66907L49.8987 8.44725C50.2696 8.33816 50.7023 8.28361 51.1969 8.28361C52.0114 8.28361 52.6405 8.46907 53.0841 8.83998C53.535 9.21089 53.7605 9.74907 53.7605 10.4545V13.1818L54.7423 13.5636L54.3932 14.2727ZM50.6841 12.92C51.055 12.92 51.4623 12.7673 51.906 12.4618V11.7636H50.1496C50.0914 11.8509 50.0478 11.9345 50.0187 12.0145C49.9969 12.0873 49.986 12.1709 49.986 12.2654C49.986 12.4473 50.0478 12.6 50.1714 12.7236C50.3023 12.8473 50.4732 12.9091 50.6841 12.9091V12.92ZM58.9646 9.83271C58.7027 9.83271 58.4409 9.94907 58.1791 10.1818V13.1273L59.8373 13.5636L59.4882 14.2727H55.3537V13.6618L56.3246 12.8436V10.3673L55.3537 9.75634V9.14543L57.6227 8.18543L58.0373 9.39634L59.03 8.37089C59.1827 8.31271 59.3609 8.28361 59.5646 8.28361C59.9427 8.28361 60.2664 8.37089 60.5355 8.54543C60.8118 8.71998 61.0046 8.95998 61.1137 9.26543L60.0664 10.5745H59.3791C59.3718 10.3127 59.3355 10.1273 59.27 10.0182C59.2046 9.9018 59.1027 9.84361 58.9646 9.84361V9.83271ZM65.1461 8.28361C65.9097 8.28361 66.4988 8.57452 66.9134 9.15634C67.3352 9.73816 67.5388 10.5454 67.5243 11.5782H63.597C63.6697 12.0218 63.8261 12.3782 64.0661 12.6473C64.3061 12.9091 64.6188 13.04 65.0043 13.04C65.5134 13.04 66.2443 12.7854 67.197 12.2763L67.5243 12.8982L65.8661 14.2182C65.437 14.3273 64.9388 14.3818 64.3716 14.3818C63.8406 14.3818 63.3606 14.2582 62.9316 14.0109C62.5097 13.7563 62.1788 13.4109 61.9388 12.9745C61.7061 12.5382 61.5897 12.0545 61.5897 11.5236C61.5897 10.9491 61.7752 10.4145 62.1461 9.91998C62.517 9.41816 62.9788 9.0218 63.5316 8.73089C64.0916 8.43271 64.6297 8.28361 65.1461 8.28361ZM64.5461 9.54907C64.2261 9.54907 63.9861 9.65816 63.8261 9.87634C63.6661 10.0873 63.5788 10.4145 63.5643 10.8582H65.6479C65.5897 10.4073 65.4806 10.0763 65.3206 9.86543C65.1679 9.65452 64.9061 9.54907 64.5352 9.54907H64.5461ZM71.8021 12.8873C71.8021 12.7491 71.7075 12.6109 71.5185 12.4727C71.3294 12.3273 71.0385 12.1454 70.6457 11.9273C70.2603 11.7091 69.9512 11.5236 69.7185 11.3709C69.4857 11.2109 69.2821 11.0327 69.1075 10.8363C68.9403 10.6327 68.8566 10.4145 68.8566 10.1818C68.8566 9.91998 68.9803 9.63998 69.2275 9.3418C69.4821 9.04361 69.7912 8.79271 70.1548 8.58907C70.5185 8.38543 70.853 8.28361 71.1585 8.28361C71.5294 8.28361 71.9621 8.32725 72.4566 8.41452C72.9585 8.49452 73.3221 8.58543 73.5475 8.68725V10.5091H72.8603C72.6639 10.1454 72.4275 9.8618 72.1512 9.65816C71.8821 9.45452 71.6021 9.35271 71.3112 9.35271C71.1657 9.35271 71.0494 9.39634 70.9621 9.48361C70.8748 9.56361 70.8312 9.6618 70.8312 9.77816C70.8312 9.93089 70.9257 10.08 71.1148 10.2254C71.3112 10.3709 71.6203 10.5636 72.0421 10.8036C72.6021 11.1091 73.0312 11.3854 73.3294 11.6327C73.6348 11.88 73.7875 12.1636 73.7875 12.4836C73.7875 12.7527 73.6566 13.0363 73.3948 13.3345C73.1403 13.6254 72.8239 13.8727 72.4457 14.0763C72.0748 14.28 71.733 14.3818 71.4203 14.3818C71.0203 14.3818 70.5439 14.3418 69.9912 14.2618C69.4457 14.1745 69.0566 14.08 68.8239 13.9782V12.0909H69.5112C69.7294 12.4763 69.9985 12.7782 70.3185 12.9963C70.6385 13.2073 70.9548 13.3127 71.2675 13.3127C71.4275 13.3127 71.5548 13.2727 71.6494 13.1927C71.7512 13.1054 71.8021 13.0036 71.8021 12.8873ZM88.0461 14.1418L85.7115 14.48L85.6024 14.1527L84.7624 13.6291C83.8897 14.1309 82.9042 14.3818 81.8061 14.3818C81.2533 14.3818 80.7697 14.2945 80.3552 14.12C79.9479 13.9382 79.6315 13.6945 79.4061 13.3891C79.1879 13.0836 79.0788 12.7418 79.0788 12.3636C79.0788 11.8691 79.2461 11.4363 79.5806 11.0654C79.9152 10.6873 80.3842 10.3309 80.9879 9.99634C80.7333 9.52361 80.6061 9.07998 80.6061 8.66543C80.6061 8.09816 80.7806 7.57089 81.1297 7.08361C81.4788 6.58907 81.9152 6.19634 82.4388 5.90543C82.9624 5.61452 83.4642 5.46907 83.9442 5.46907C84.1697 5.46907 84.4388 5.54543 84.7515 5.69816C85.0715 5.85089 85.3442 6.04361 85.5697 6.27634C85.8024 6.50907 85.9188 6.7418 85.9188 6.97452C85.9188 7.34543 85.7915 7.69089 85.537 8.01089C85.2897 8.33089 84.9915 8.61452 84.6424 8.8618C84.3006 9.10907 83.8206 9.42543 83.2024 9.81089C83.6461 10.4145 84.4133 11.1236 85.5042 11.9382C85.8752 11.5673 86.1842 11.1673 86.4315 10.7382L84.9806 9.9418L85.3406 9.23271H88.2097V9.84361C87.8388 10.4109 87.497 10.9054 87.1842 11.3273C86.8715 11.7418 86.5479 12.1236 86.2133 12.4727L86.617 12.7563L88.4061 13.4327L88.0461 14.1418ZM83.3006 6.66907C83.0606 6.66907 82.8752 6.79634 82.7442 7.05089C82.6206 7.29816 82.5588 7.66543 82.5588 8.15271C82.5588 8.46543 82.6242 8.7818 82.7552 9.1018C83.177 8.82543 83.497 8.57089 83.7152 8.33816C83.9406 8.10543 84.0533 7.85816 84.0533 7.59634C84.0533 7.48725 84.0133 7.35998 83.9333 7.21452C83.8606 7.0618 83.7661 6.93452 83.6497 6.83271C83.5333 6.72361 83.417 6.66907 83.3006 6.66907ZM82.7224 13.4218C83.1079 13.4218 83.5261 13.3127 83.977 13.0945C82.937 12.3309 82.1188 11.5745 81.5224 10.8254C81.3261 11.1163 81.2279 11.4363 81.2279 11.7854C81.2279 12.2582 81.3552 12.6473 81.6097 12.9527C81.8642 13.2582 82.2352 13.4109 82.7224 13.4109V13.4218ZM47.7931 20.1382L45.3603 26.9127L43.484 27.4691L41.9349 23.0836L40.7131 26.9127L38.8258 27.4691L35.9349 19.9309L34.8549 19.3963L35.204 18.6873H38.7385V19.2982L37.9749 19.8654L40.1458 25.6363L41.4222 21.6545L40.8112 19.9309L39.8185 19.4073L40.1676 18.6982H43.9858V19.3091L42.8949 19.9854L44.8258 25.6473L46.7349 20.2145L45.0112 19.4073L45.3712 18.6982H48.884L48.8949 19.2982L47.7931 20.1382ZM51.8613 21.2836C52.3995 21.2836 52.8795 21.4109 53.3013 21.6654C53.7231 21.9127 54.0504 22.2545 54.2831 22.6909C54.5231 23.1273 54.6431 23.6109 54.6431 24.1418C54.6431 24.7163 54.4577 25.2545 54.0868 25.7563C53.7158 26.2509 53.2504 26.6473 52.6904 26.9454C52.1377 27.2363 51.6031 27.3818 51.0868 27.3818C50.5558 27.3818 50.0758 27.2582 49.6468 27.0109C49.2249 26.7563 48.894 26.4109 48.654 25.9745C48.4213 25.5382 48.3049 25.0545 48.3049 24.5236C48.3049 23.9491 48.4904 23.4145 48.8613 22.92C49.2322 22.4182 49.694 22.0218 50.2468 21.7309C50.8068 21.4327 51.3449 21.2836 51.8613 21.2836ZM51.2286 22.5491C50.9231 22.5491 50.6904 22.6727 50.5304 22.92C50.3777 23.16 50.3013 23.52 50.3013 24C50.3013 24.6109 50.4249 25.12 50.6722 25.5273C50.9195 25.9273 51.2686 26.1273 51.7195 26.1273C52.0177 26.1273 52.2431 26.0036 52.3958 25.7563C52.5558 25.5018 52.6358 25.1345 52.6358 24.6545C52.6358 24.0436 52.5122 23.5418 52.2649 23.1491C52.0177 22.7491 51.6722 22.5491 51.2286 22.5491ZM62.8935 27.2727H60.4172V23.7818C60.4172 23.44 60.3626 23.2 60.2535 23.0618C60.1517 22.9163 59.9699 22.8436 59.7081 22.8436C59.3226 22.8436 58.9408 22.9673 58.5626 23.2145V26.2363L59.5445 26.5636L59.1845 27.2727H55.7372V26.6618L56.7081 25.8436V23.3673L55.7372 22.7563V22.1454L58.0063 21.1854L58.4317 22.4509L59.7845 21.3709C59.9808 21.3127 60.2026 21.2836 60.4499 21.2836C61.0026 21.2836 61.4426 21.4363 61.7699 21.7418C62.1045 22.04 62.2717 22.4473 62.2717 22.9636V26.2363L63.2535 26.5636L62.8935 27.2727ZM70.7948 27.2727H68.3184V26.4654L67.2712 27.2945C67.0384 27.3527 66.7693 27.3818 66.4639 27.3818C65.9839 27.3818 65.5512 27.2582 65.1657 27.0109C64.7875 26.7563 64.4893 26.4109 64.2712 25.9745C64.0602 25.5382 63.9548 25.0545 63.9548 24.5236C63.9548 23.9491 64.1402 23.4145 64.5112 22.92C64.8821 22.4182 65.3439 22.0218 65.8966 21.7309C66.4566 21.4327 66.9948 21.2836 67.5112 21.2836C67.8021 21.2836 68.0712 21.3563 68.3184 21.5018V19.8763L67.3475 19.2327V18.6218L69.4857 17.7491H70.173V26.2363L71.1548 26.5636L70.7948 27.2727ZM67.1293 25.92C67.5584 25.92 67.9548 25.8145 68.3184 25.6036V23.52C68.2748 23.2363 68.1293 23.0036 67.8821 22.8218C67.6348 22.64 67.3002 22.5491 66.8784 22.5491C66.2384 22.5491 65.9184 23.0363 65.9184 24.0109C65.9184 24.5636 66.0202 25.0218 66.2239 25.3854C66.4348 25.7418 66.7366 25.92 67.1293 25.92ZM75.4799 21.2836C76.2435 21.2836 76.8326 21.5745 77.2472 22.1563C77.669 22.7382 77.8726 23.5454 77.8581 24.5782H73.9308C74.0035 25.0218 74.1599 25.3782 74.3999 25.6473C74.6399 25.9091 74.9526 26.04 75.3381 26.04C75.8472 26.04 76.5781 25.7854 77.5308 25.2763L77.8581 25.8982L76.1999 27.2182C75.7708 27.3273 75.2726 27.3818 74.7054 27.3818C74.1744 27.3818 73.6944 27.2582 73.2654 27.0109C72.8435 26.7563 72.5126 26.4109 72.2726 25.9745C72.0399 25.5382 71.9235 25.0545 71.9235 24.5236C71.9235 23.9491 72.109 23.4145 72.4799 22.92C72.8508 22.4182 73.3126 22.0218 73.8654 21.7309C74.4254 21.4327 74.9635 21.2836 75.4799 21.2836ZM74.8799 22.5491C74.5599 22.5491 74.3199 22.6582 74.1599 22.8763C73.9999 23.0873 73.9126 23.4145 73.8981 23.8582H75.9817C75.9235 23.4073 75.8144 23.0763 75.6544 22.8654C75.5017 22.6545 75.2399 22.5491 74.869 22.5491H74.8799ZM82.5832 22.8327C82.3214 22.8327 82.0595 22.9491 81.7977 23.1818V26.1273L83.4559 26.5636L83.1068 27.2727H78.9723V26.6618L79.9432 25.8436V23.3673L78.9723 22.7563V22.1454L81.2414 21.1854L81.6559 22.3963L82.6486 21.3709C82.8014 21.3127 82.9795 21.2836 83.1832 21.2836C83.5614 21.2836 83.885 21.3709 84.1541 21.5454C84.4304 21.72 84.6232 21.96 84.7323 22.2654L83.685 23.5745H82.9977C82.9904 23.3127 82.9541 23.1273 82.8886 23.0182C82.8232 22.9018 82.7214 22.8436 82.5832 22.8436V22.8327ZM88.3468 25.8873C88.3468 25.7491 88.2523 25.6109 88.0632 25.4727C87.8741 25.3273 87.5832 25.1454 87.1905 24.9273C86.805 24.7091 86.4959 24.5236 86.2632 24.3709C86.0305 24.2109 85.8268 24.0327 85.6523 23.8363C85.485 23.6327 85.4014 23.4145 85.4014 23.1818C85.4014 22.92 85.525 22.64 85.7723 22.3418C86.0268 22.0436 86.3359 21.7927 86.6996 21.5891C87.0632 21.3854 87.3977 21.2836 87.7032 21.2836C88.0741 21.2836 88.5068 21.3273 89.0014 21.4145C89.5032 21.4945 89.8668 21.5854 90.0923 21.6873V23.5091H89.405C89.2087 23.1454 88.9723 22.8618 88.6959 22.6582C88.4268 22.4545 88.1468 22.3527 87.8559 22.3527C87.7105 22.3527 87.5941 22.3963 87.5068 22.4836C87.4196 22.5636 87.3759 22.6618 87.3759 22.7782C87.3759 22.9309 87.4705 23.08 87.6596 23.2254C87.8559 23.3709 88.165 23.5636 88.5868 23.8036C89.1468 24.1091 89.5759 24.3854 89.8741 24.6327C90.1796 24.88 90.3323 25.1636 90.3323 25.4836C90.3323 25.7527 90.2014 26.0363 89.9396 26.3345C89.685 26.6254 89.3687 26.8727 88.9905 27.0763C88.6196 27.28 88.2777 27.3818 87.965 27.3818C87.565 27.3818 87.0887 27.3418 86.5359 27.2618C85.9905 27.1745 85.6014 27.08 85.3687 26.9782V25.0909H86.0559C86.2741 25.4763 86.5432 25.7782 86.8632 25.9963C87.1832 26.2073 87.4996 26.3127 87.8123 26.3127C87.9723 26.3127 88.0996 26.2727 88.1941 26.1927C88.2959 26.1054 88.3468 26.0036 88.3468 25.8873Z" fill="#708176"/>
</g>
<defs>
<clipPath id="clip0_86_2134">
<rect width="96" height="32" fill="white"/>
</clipPath>
</defs>
</svg>
